<svg xmlns="http://www.w3.org/2000/svg" width="24" height="24" viewBox="0 0 24 24" fill="none">
  <circle cx="12" cy="12" r="12" fill="#FFDB77"/>
  <circle cx="12" cy="12" r="9" fill="#FFC932"/>
  <path d="M14.2043 11.4147C13.8552 11.4147 13.5782 11.1424 13.3898 10.8485C13.1364 10.4531 12.6885 10.2258 12.1385 10.2258C11.0954 10.2258 10.4123 11.0276 10.4123 12.4286C10.4123 13.8664 11.1046 14.6313 12.1292 14.6313C12.6731 14.6313 13.1147 14.4177 13.3746 14.0365C13.5691 13.7514 13.8472 13.4901 14.1924 13.4924C14.6219 13.4952 14.958 13.881 14.7783 14.2711C14.3663 15.1654 13.4429 15.8571 12.1108 15.8571C10.32 15.8571 9 14.6037 9 12.4286C9 10.2535 10.3477 9 12.1108 9C13.3719 9 14.3797 9.59217 14.8057 10.6453C14.9644 11.0376 14.6274 11.4147 14.2043 11.4147Z" fill="white"/>
</svg>