<svg xmlns="http://www.w3.org/2000/svg" width="17" height="16" viewBox="0 0 17 16" fill="none">
  <path d="M7.83594 2.66602H3.16927C2.81565 2.66602 2.47651 2.80649 2.22646 3.05654C1.97641 3.30659 1.83594 3.64573 1.83594 3.99935V13.3327C1.83594 13.6863 1.97641 14.0254 2.22646 14.2755C2.47651 14.5255 2.81565 14.666 3.16927 14.666H12.5026C12.8562 14.666 13.1954 14.5255 13.4454 14.2755C13.6955 14.0254 13.8359 13.6863 13.8359 13.3327V8.66602" stroke="#454858" stroke-width="1.33333" stroke-linecap="round" stroke-linejoin="round"/>
  <path d="M12.8359 1.66617C13.1012 1.40095 13.4609 1.25195 13.8359 1.25195C14.211 1.25195 14.5707 1.40095 14.8359 1.66617C15.1012 1.93138 15.2502 2.29109 15.2502 2.66617C15.2502 3.04124 15.1012 3.40095 14.8359 3.66617L8.5026 9.9995L5.83594 10.6662L6.5026 7.9995L12.8359 1.66617Z" stroke="#454858" stroke-width="1.33333" stroke-linecap="round" stroke-linejoin="round"/>
</svg>