<svg width="62" height="28" viewBox="0 0 62 28" fill="none" xmlns="http://www.w3.org/2000/svg">
<circle cx="48" cy="14" r="14" fill="#F2F3F6"/>
<g filter="url(#filter0_ii_879_3381)">
<circle cx="48.1523" cy="14" r="12" fill="#FF8746"/>
</g>
<g filter="url(#filter1_f_879_3381)">
<ellipse cx="43.6523" cy="15.5" rx="1.875" ry="1.5" fill="#FF6565"/>
</g>
<g filter="url(#filter2_f_879_3381)">
<ellipse cx="52.2773" cy="15.5" rx="1.875" ry="1.5" fill="#FF6565"/>
</g>
<path d="M45.5273 17C45.5273 17 46.0898 15.5 48.1523 15.5C50.2148 15.5 50.7773 17 50.7773 17" stroke="#F34040" stroke-width="0.75" stroke-linecap="round"/>
<path d="M43.2773 10.25L46.2773 11.1875" stroke="#353743" stroke-width="0.75" stroke-linecap="round"/>
<path d="M52.6523 10.25L49.6523 11.1875" stroke="#353743" stroke-width="0.75" stroke-linecap="round"/>
<circle cx="45.1523" cy="12.125" r="1.125" fill="#353743"/>
<circle cx="1.125" cy="1.125" r="1.125" transform="matrix(-1 0 0 1 51.9023 11)" fill="#353743"/>
<circle cx="32" cy="14" r="14" fill="#F2F3F6"/>
<g filter="url(#filter3_ii_879_3381)">
<ellipse cx="31.8238" cy="14" rx="12.0152" ry="12" fill="#FFD45B"/>
</g>
<g filter="url(#filter4_f_879_3381)">
<ellipse cx="27.3188" cy="15.5" rx="1.87738" ry="1.5" fill="#FF9797" fill-opacity="0.8"/>
</g>
<g filter="url(#filter5_f_879_3381)">
<ellipse cx="35.9555" cy="15.5" rx="1.87738" ry="1.5" fill="#FF9797" fill-opacity="0.8"/>
</g>
<path d="M30.0886 10.5013C30.0152 10.4216 29.928 10.3584 29.8321 10.3153C29.7362 10.2722 29.6334 10.25 29.5296 10.25C29.4258 10.25 29.323 10.2722 29.227 10.3153C29.1311 10.3584 29.044 10.4216 28.9706 10.5013L28.8458 10.6366C28.831 10.6527 28.8055 10.6527 28.7907 10.6366L28.6659 10.5013C28.5177 10.3404 28.3166 10.2501 28.1069 10.2501C27.8973 10.2501 27.6962 10.3404 27.548 10.5013C27.3997 10.6621 27.3164 10.8802 27.3164 11.1077C27.3164 11.3351 27.3997 11.5532 27.548 11.7141L27.7003 11.8793L28.6804 12.9426C28.7547 13.0231 28.8819 13.0231 28.9561 12.9426L29.9363 11.8793L30.0886 11.7141C30.162 11.6344 30.2203 11.5399 30.26 11.4359C30.2998 11.3318 30.3202 11.2203 30.3202 11.1077C30.3202 10.995 30.2998 10.8835 30.26 10.7795C30.2203 10.6754 30.162 10.5809 30.0886 10.5013Z" fill="#F25858"/>
<path d="M36.1003 10.5013C36.0269 10.4216 35.9398 10.3584 35.8439 10.3153C35.7479 10.2722 35.6451 10.25 35.5413 10.25C35.4375 10.25 35.3347 10.2722 35.2388 10.3153C35.1429 10.3584 35.0557 10.4216 34.9823 10.5013L34.8576 10.6366C34.8427 10.6527 34.8173 10.6527 34.8024 10.6366L34.6777 10.5013C34.5294 10.3404 34.3283 10.2501 34.1187 10.2501C33.909 10.2501 33.7079 10.3404 33.5597 10.5013C33.4114 10.6621 33.3281 10.8802 33.3281 11.1077C33.3281 11.3351 33.4114 11.5532 33.5597 11.7141L33.712 11.8793L34.6921 12.9426C34.7664 13.0231 34.8936 13.0231 34.9678 12.9426L35.948 11.8793L36.1003 11.7141C36.1737 11.6344 36.232 11.5399 36.2717 11.4359C36.3115 11.3318 36.3319 11.2203 36.3319 11.1077C36.3319 10.995 36.3115 10.8835 36.2717 10.7795C36.232 10.6754 36.1737 10.5809 36.1003 10.5013Z" fill="#F25858"/>
<g filter="url(#filter6_ii_879_3381)">
<path d="M43.7618 7.15121C43.7131 7.01375 43.6386 6.88942 43.5427 6.78533C43.4467 6.68124 43.3311 6.59943 43.2025 6.54456C43.0739 6.4897 42.9348 6.46286 42.7931 6.46557C42.6515 6.46829 42.51 6.50052 42.3769 6.56041L42.1378 6.6679C42.1178 6.67689 42.0944 6.66691 42.0871 6.64626L41.9995 6.39941C41.9011 6.12185 41.6999 5.90366 41.4402 5.79287C41.1804 5.68207 40.8835 5.68773 40.6146 5.80861C40.3458 5.92948 40.1271 6.15567 40.0066 6.43742C39.8861 6.71916 39.8737 7.03338 39.9721 7.31095L40.0733 7.59613L40.7476 9.49759C40.7843 9.60082 40.9013 9.65076 41.0013 9.6058L42.8431 8.77774L43.1193 8.65355C43.2524 8.59373 43.3747 8.50741 43.479 8.39952C43.5834 8.29163 43.6678 8.1643 43.7275 8.02478C43.7871 7.88527 43.8209 7.73631 43.8268 7.58642C43.8327 7.43653 43.8106 7.28864 43.7618 7.15121Z" fill="#F25858"/>
</g>
<g filter="url(#filter7_ii_879_3381)">
<path d="M21.2633 21.3928C21.3015 21.285 21.3599 21.1875 21.4351 21.1059C21.5104 21.0243 21.601 20.9601 21.7018 20.9171C21.8027 20.8741 21.9118 20.853 22.0228 20.8551C22.1339 20.8573 22.2448 20.8825 22.3492 20.9295L22.5287 21.0102C22.5487 21.0192 22.5721 21.0092 22.5794 20.9886L22.6451 20.8033C22.7223 20.5856 22.8801 20.4145 23.0837 20.3277C23.2874 20.2408 23.5202 20.2452 23.731 20.34C23.9419 20.4348 24.1134 20.6121 24.2079 20.8331C24.3023 21.054 24.3121 21.3004 24.2349 21.518L24.1556 21.7416L23.6414 23.1912C23.6048 23.2945 23.4878 23.3444 23.3878 23.2995L21.9837 22.6682L21.7671 22.5708C21.6627 22.5239 21.5668 22.4562 21.485 22.3716C21.4032 22.287 21.337 22.1872 21.2902 22.0778C21.2434 21.9684 21.2169 21.8516 21.2123 21.734C21.2077 21.6165 21.225 21.5005 21.2633 21.3928Z" fill="#FF63A9"/>
</g>
<g filter="url(#filter8_ii_879_3381)">
<path d="M43.7018 18.3175C43.6455 18.257 43.5787 18.2091 43.5054 18.1766C43.432 18.1441 43.3535 18.1276 43.2743 18.128C43.1951 18.1284 43.1168 18.1457 43.0438 18.179C42.9708 18.2123 42.9046 18.2608 42.8489 18.3219L42.7607 18.4185C42.746 18.4347 42.7205 18.4348 42.7056 18.4188L42.6165 18.3231C42.5027 18.201 42.349 18.1328 42.189 18.1337C42.0291 18.1345 41.876 18.2042 41.7636 18.3275C41.6511 18.4508 41.5884 18.6175 41.5893 18.791C41.5902 18.9645 41.6546 19.1306 41.7684 19.2527L41.8852 19.3782L42.6043 20.1501C42.679 20.2303 42.8062 20.2297 42.88 20.1487L43.591 19.3693L43.7066 19.2427C43.7623 19.1817 43.8063 19.1093 43.8362 19.0298C43.8661 18.9502 43.8813 18.8651 43.8809 18.7792C43.8804 18.6932 43.8644 18.6082 43.8336 18.529C43.8029 18.4498 43.7581 18.3779 43.7018 18.3175Z" fill="#FF63A9"/>
</g>
<mask id="mask0_879_3381" style="mask-type:alpha" maskUnits="userSpaceOnUse" x="28" y="14" width="8" height="4">
<path d="M31.8207 17.75C29.283 17.75 28.651 15.8468 28.4936 14.8988C28.4514 14.6444 28.6964 14.4588 28.9449 14.5277C29.5713 14.7013 30.696 14.9609 31.8207 14.9609C32.9454 14.9609 34.0701 14.7013 34.6964 14.5277C34.9449 14.4588 35.19 14.6444 35.1478 14.8988C34.9904 15.8468 34.3583 17.75 31.8207 17.75Z" fill="#CCA94F"/>
</mask>
<g mask="url(#mask0_879_3381)">
<path d="M31.8207 17.75C29.283 17.75 28.651 15.8468 28.4936 14.8988C28.4514 14.6444 28.6964 14.4588 28.9449 14.5277C29.5713 14.7013 30.696 14.9609 31.8207 14.9609C32.9454 14.9609 34.0701 14.7013 34.6964 14.5277C34.9449 14.4588 35.19 14.6444 35.1478 14.8988C34.9904 15.8468 34.3583 17.75 31.8207 17.75Z" fill="#CC9E2A"/>
<ellipse cx="31.8197" cy="18.125" rx="2.62833" ry="1.875" fill="#F0BF40"/>
</g>
<circle cx="14" cy="14" r="14" fill="#F2F3F6"/>
<g filter="url(#filter9_ii_879_3381)">
<ellipse cx="13.7571" cy="14" rx="11.9446" ry="12" fill="#FFD45B"/>
</g>
<path d="M9.27734 12.125C9.27734 12.125 9.27734 11 10.3972 11C11.517 11 11.517 12.125 11.517 12.125" stroke="#353743" stroke-width="0.75" stroke-linecap="round"/>
<path d="M15.9961 12.125C15.9961 12.125 15.9961 11 17.1159 11C18.2357 11 18.2357 12.125 18.2357 12.125" stroke="#353743" stroke-width="0.75" stroke-linecap="round"/>
<g filter="url(#filter10_ii_879_3381)">
<path fill-rule="evenodd" clip-rule="evenodd" d="M22.6649 13.7693C22.5268 13.8988 22.4227 14.0671 22.3701 14.2642L21.8291 16.2927L21.5586 17.3069L20.7471 20.3496C20.5976 20.9102 20.9281 21.4853 21.4861 21.6355L24.5147 22.4508C25.0728 22.601 25.6453 22.269 25.7948 21.7084L26.8768 17.6515C27.0263 17.0909 26.6958 16.5157 26.1378 16.3655L24.9856 16.0553C24.7856 16.0015 24.6667 15.7956 24.7201 15.5955L24.894 14.9436C25.0435 14.383 24.7129 13.8079 24.1549 13.6576L23.6502 13.5218C23.2883 13.4244 22.9199 13.5301 22.6649 13.7693Z" fill="#FFA827"/>
</g>
<g filter="url(#filter11_f_879_3381)">
<ellipse cx="9.2765" cy="15.5" rx="1.86635" ry="1.5" fill="#FF9797" fill-opacity="0.8"/>
</g>
<g filter="url(#filter12_f_879_3381)">
<ellipse cx="17.8624" cy="15.5" rx="1.86635" ry="1.5" fill="#FF9797" fill-opacity="0.8"/>
</g>
<path d="M11.1445 15.5C11.1445 15.5 11.1445 17.375 13.7574 17.375C16.3703 17.375 16.3703 15.5 16.3703 15.5" stroke="#F25858" stroke-width="0.75" stroke-linecap="round"/>
<defs>
<filter id="filter0_ii_879_3381" x="34.6523" y="0.125" width="28.5" height="27.375" filterUnits="userSpaceOnUse" color-interpolation-filters="sRGB">
<feFlood flood-opacity="0" result="BackgroundImageFix"/>
<feBlend mode="normal" in="SourceGraphic" in2="BackgroundImageFix" result="shape"/>
<feColorMatrix in="SourceAlpha" type="matrix" values="0 0 0 0 0 0 0 0 0 0 0 0 0 0 0 0 0 0 127 0" result="hardAlpha"/>
<feMorphology radius="1.125" operator="dilate" in="SourceAlpha" result="effect1_innerShadow_879_3381"/>
<feOffset dx="3.375" dy="-1.875"/>
<feGaussianBlur stdDeviation="2.0625"/>
<feComposite in2="hardAlpha" operator="arithmetic" k2="-1" k3="1"/>
<feColorMatrix type="matrix" values="0 0 0 0 1 0 0 0 0 0.450362 0 0 0 0 0.202778 0 0 0 1 0"/>
<feBlend mode="normal" in2="shape" result="effect1_innerShadow_879_3381"/>
<feColorMatrix in="SourceAlpha" type="matrix" values="0 0 0 0 0 0 0 0 0 0 0 0 0 0 0 0 0 0 127 0" result="hardAlpha"/>
<feOffset dx="-1.5" dy="1.5"/>
<feGaussianBlur stdDeviation="0.75"/>
<feComposite in2="hardAlpha" operator="arithmetic" k2="-1" k3="1"/>
<feColorMatrix type="matrix" values="0 0 0 0 1 0 0 0 0 0.589981 0 0 0 0 0.366667 0 0 0 1 0"/>
<feBlend mode="normal" in2="effect1_innerShadow_879_3381" result="effect2_innerShadow_879_3381"/>
</filter>
<filter id="filter1_f_879_3381" x="38.7773" y="11" width="9.75" height="9" filterUnits="userSpaceOnUse" color-interpolation-filters="sRGB">
<feFlood flood-opacity="0" result="BackgroundImageFix"/>
<feBlend mode="normal" in="SourceGraphic" in2="BackgroundImageFix" result="shape"/>
<feGaussianBlur stdDeviation="1.5" result="effect1_foregroundBlur_879_3381"/>
</filter>
<filter id="filter2_f_879_3381" x="47.4023" y="11" width="9.75" height="9" filterUnits="userSpaceOnUse" color-interpolation-filters="sRGB">
<feFlood flood-opacity="0" result="BackgroundImageFix"/>
<feBlend mode="normal" in="SourceGraphic" in2="BackgroundImageFix" result="shape"/>
<feGaussianBlur stdDeviation="1.5" result="effect1_foregroundBlur_879_3381"/>
</filter>
<filter id="filter3_ii_879_3381" x="18.3086" y="0.125" width="28.5312" height="27.375" filterUnits="userSpaceOnUse" color-interpolation-filters="sRGB">
<feFlood flood-opacity="0" result="BackgroundImageFix"/>
<feBlend mode="normal" in="SourceGraphic" in2="BackgroundImageFix" result="shape"/>
<feColorMatrix in="SourceAlpha" type="matrix" values="0 0 0 0 0 0 0 0 0 0 0 0 0 0 0 0 0 0 127 0" result="hardAlpha"/>
<feMorphology radius="1.125" operator="dilate" in="SourceAlpha" result="effect1_innerShadow_879_3381"/>
<feOffset dx="3.375" dy="-1.875"/>
<feGaussianBlur stdDeviation="2.0625"/>
<feComposite in2="hardAlpha" operator="arithmetic" k2="-1" k3="1"/>
<feColorMatrix type="matrix" values="0 0 0 0 1 0 0 0 0 0.707984 0 0 0 0 0.195833 0 0 0 1 0"/>
<feBlend mode="normal" in2="shape" result="effect1_innerShadow_879_3381"/>
<feColorMatrix in="SourceAlpha" type="matrix" values="0 0 0 0 0 0 0 0 0 0 0 0 0 0 0 0 0 0 127 0" result="hardAlpha"/>
<feOffset dx="-1.5" dy="1.5"/>
<feGaussianBlur stdDeviation="0.75"/>
<feComposite in2="hardAlpha" operator="arithmetic" k2="-1" k3="1"/>
<feColorMatrix type="matrix" values="0 0 0 0 1 0 0 0 0 0.89 0 0 0 0 0.45 0 0 0 1 0"/>
<feBlend mode="normal" in2="effect1_innerShadow_879_3381" result="effect2_innerShadow_879_3381"/>
</filter>
<filter id="filter4_f_879_3381" x="22.4414" y="11" width="9.75391" height="9" filterUnits="userSpaceOnUse" color-interpolation-filters="sRGB">
<feFlood flood-opacity="0" result="BackgroundImageFix"/>
<feBlend mode="normal" in="SourceGraphic" in2="BackgroundImageFix" result="shape"/>
<feGaussianBlur stdDeviation="1.5" result="effect1_foregroundBlur_879_3381"/>
</filter>
<filter id="filter5_f_879_3381" x="31.0781" y="11" width="9.75391" height="9" filterUnits="userSpaceOnUse" color-interpolation-filters="sRGB">
<feFlood flood-opacity="0" result="BackgroundImageFix"/>
<feBlend mode="normal" in="SourceGraphic" in2="BackgroundImageFix" result="shape"/>
<feGaussianBlur stdDeviation="1.5" result="effect1_foregroundBlur_879_3381"/>
</filter>
<filter id="filter6_ii_879_3381" x="39.5312" y="5.71289" width="4.67188" height="4.28516" filterUnits="userSpaceOnUse" color-interpolation-filters="sRGB">
<feFlood flood-opacity="0" result="BackgroundImageFix"/>
<feBlend mode="normal" in="SourceGraphic" in2="BackgroundImageFix" result="shape"/>
<feColorMatrix in="SourceAlpha" type="matrix" values="0 0 0 0 0 0 0 0 0 0 0 0 0 0 0 0 0 0 127 0" result="hardAlpha"/>
<feOffset dx="0.375"/>
<feGaussianBlur stdDeviation="0.84375"/>
<feComposite in2="hardAlpha" operator="arithmetic" k2="-1" k3="1"/>
<feColorMatrix type="matrix" values="0 0 0 0 0.987457 0 0 0 0 0.216692 0 0 0 0 0.216692 0 0 0 1 0"/>
<feBlend mode="normal" in2="shape" result="effect1_innerShadow_879_3381"/>
<feColorMatrix in="SourceAlpha" type="matrix" values="0 0 0 0 0 0 0 0 0 0 0 0 0 0 0 0 0 0 127 0" result="hardAlpha"/>
<feOffset dx="-0.375" dy="0.375"/>
<feGaussianBlur stdDeviation="0.375"/>
<feComposite in2="hardAlpha" operator="arithmetic" k2="-1" k3="1"/>
<feColorMatrix type="matrix" values="0 0 0 0 1 0 0 0 0 0.516667 0 0 0 0 0.516667 0 0 0 1 0"/>
<feBlend mode="normal" in2="effect1_innerShadow_879_3381" result="effect2_innerShadow_879_3381"/>
</filter>
<filter id="filter7_ii_879_3381" x="20.8359" y="20.2656" width="3.82422" height="3.42578" filterUnits="userSpaceOnUse" color-interpolation-filters="sRGB">
<feFlood flood-opacity="0" result="BackgroundImageFix"/>
<feBlend mode="normal" in="SourceGraphic" in2="BackgroundImageFix" result="shape"/>
<feColorMatrix in="SourceAlpha" type="matrix" values="0 0 0 0 0 0 0 0 0 0 0 0 0 0 0 0 0 0 127 0" result="hardAlpha"/>
<feOffset dx="0.375"/>
<feGaussianBlur stdDeviation="0.84375"/>
<feComposite in2="hardAlpha" operator="arithmetic" k2="-1" k3="1"/>
<feColorMatrix type="matrix" values="0 0 0 0 1 0 0 0 0 0.202778 0 0 0 0 0.548072 0 0 0 1 0"/>
<feBlend mode="normal" in2="shape" result="effect1_innerShadow_879_3381"/>
<feColorMatrix in="SourceAlpha" type="matrix" values="0 0 0 0 0 0 0 0 0 0 0 0 0 0 0 0 0 0 127 0" result="hardAlpha"/>
<feOffset dx="-0.375" dy="0.375"/>
<feGaussianBlur stdDeviation="0.375"/>
<feComposite in2="hardAlpha" operator="arithmetic" k2="-1" k3="1"/>
<feColorMatrix type="matrix" values="0 0 0 0 1 0 0 0 0 0.526389 0 0 0 0 0.736571 0 0 0 1 0"/>
<feBlend mode="normal" in2="effect1_innerShadow_879_3381" result="effect2_innerShadow_879_3381"/>
</filter>
<filter id="filter8_ii_879_3381" x="41.2148" y="18.1289" width="3.04297" height="2.45508" filterUnits="userSpaceOnUse" color-interpolation-filters="sRGB">
<feFlood flood-opacity="0" result="BackgroundImageFix"/>
<feBlend mode="normal" in="SourceGraphic" in2="BackgroundImageFix" result="shape"/>
<feColorMatrix in="SourceAlpha" type="matrix" values="0 0 0 0 0 0 0 0 0 0 0 0 0 0 0 0 0 0 127 0" result="hardAlpha"/>
<feOffset dx="0.375"/>
<feGaussianBlur stdDeviation="0.84375"/>
<feComposite in2="hardAlpha" operator="arithmetic" k2="-1" k3="1"/>
<feColorMatrix type="matrix" values="0 0 0 0 1 0 0 0 0 0.202778 0 0 0 0 0.548072 0 0 0 1 0"/>
<feBlend mode="normal" in2="shape" result="effect1_innerShadow_879_3381"/>
<feColorMatrix in="SourceAlpha" type="matrix" values="0 0 0 0 0 0 0 0 0 0 0 0 0 0 0 0 0 0 127 0" result="hardAlpha"/>
<feOffset dx="-0.375" dy="0.375"/>
<feGaussianBlur stdDeviation="0.375"/>
<feComposite in2="hardAlpha" operator="arithmetic" k2="-1" k3="1"/>
<feColorMatrix type="matrix" values="0 0 0 0 1 0 0 0 0 0.526389 0 0 0 0 0.736571 0 0 0 1 0"/>
<feBlend mode="normal" in2="effect1_innerShadow_879_3381" result="effect2_innerShadow_879_3381"/>
</filter>
<filter id="filter9_ii_879_3381" x="0.3125" y="0.125" width="28.3906" height="27.375" filterUnits="userSpaceOnUse" color-interpolation-filters="sRGB">
<feFlood flood-opacity="0" result="BackgroundImageFix"/>
<feBlend mode="normal" in="SourceGraphic" in2="BackgroundImageFix" result="shape"/>
<feColorMatrix in="SourceAlpha" type="matrix" values="0 0 0 0 0 0 0 0 0 0 0 0 0 0 0 0 0 0 127 0" result="hardAlpha"/>
<feMorphology radius="1.125" operator="dilate" in="SourceAlpha" result="effect1_innerShadow_879_3381"/>
<feOffset dx="3.375" dy="-1.875"/>
<feGaussianBlur stdDeviation="2.0625"/>
<feComposite in2="hardAlpha" operator="arithmetic" k2="-1" k3="1"/>
<feColorMatrix type="matrix" values="0 0 0 0 1 0 0 0 0 0.707984 0 0 0 0 0.195833 0 0 0 1 0"/>
<feBlend mode="normal" in2="shape" result="effect1_innerShadow_879_3381"/>
<feColorMatrix in="SourceAlpha" type="matrix" values="0 0 0 0 0 0 0 0 0 0 0 0 0 0 0 0 0 0 127 0" result="hardAlpha"/>
<feOffset dx="-1.5" dy="1.5"/>
<feGaussianBlur stdDeviation="0.75"/>
<feComposite in2="hardAlpha" operator="arithmetic" k2="-1" k3="1"/>
<feColorMatrix type="matrix" values="0 0 0 0 1 0 0 0 0 0.89 0 0 0 0 0.45 0 0 0 1 0"/>
<feBlend mode="normal" in2="effect1_innerShadow_879_3381" result="effect2_innerShadow_879_3381"/>
</filter>
<filter id="filter10_ii_879_3381" x="20.3359" y="13.4863" width="7.70312" height="9.375" filterUnits="userSpaceOnUse" color-interpolation-filters="sRGB">
<feFlood flood-opacity="0" result="BackgroundImageFix"/>
<feBlend mode="normal" in="SourceGraphic" in2="BackgroundImageFix" result="shape"/>
<feColorMatrix in="SourceAlpha" type="matrix" values="0 0 0 0 0 0 0 0 0 0 0 0 0 0 0 0 0 0 127 0" result="hardAlpha"/>
<feOffset dx="1.125"/>
<feGaussianBlur stdDeviation="0.84375"/>
<feComposite in2="hardAlpha" operator="arithmetic" k2="-1" k3="1"/>
<feColorMatrix type="matrix" values="0 0 0 0 1 0 0 0 0 0.519352 0 0 0 0 0.00555547 0 0 0 0.9 0"/>
<feBlend mode="normal" in2="shape" result="effect1_innerShadow_879_3381"/>
<feColorMatrix in="SourceAlpha" type="matrix" values="0 0 0 0 0 0 0 0 0 0 0 0 0 0 0 0 0 0 127 0" result="hardAlpha"/>
<feOffset dx="-0.375" dy="0.375"/>
<feGaussianBlur stdDeviation="0.5625"/>
<feComposite in2="hardAlpha" operator="arithmetic" k2="-1" k3="1"/>
<feColorMatrix type="matrix" values="0 0 0 0 1 0 0 0 0 0.761585 0 0 0 0 0.423611 0 0 0 1 0"/>
<feBlend mode="normal" in2="effect1_innerShadow_879_3381" result="effect2_innerShadow_879_3381"/>
</filter>
<filter id="filter11_f_879_3381" x="4.41016" y="11" width="9.73438" height="9" filterUnits="userSpaceOnUse" color-interpolation-filters="sRGB">
<feFlood flood-opacity="0" result="BackgroundImageFix"/>
<feBlend mode="normal" in="SourceGraphic" in2="BackgroundImageFix" result="shape"/>
<feGaussianBlur stdDeviation="1.5" result="effect1_foregroundBlur_879_3381"/>
</filter>
<filter id="filter12_f_879_3381" x="12.9961" y="11" width="9.73438" height="9" filterUnits="userSpaceOnUse" color-interpolation-filters="sRGB">
<feFlood flood-opacity="0" result="BackgroundImageFix"/>
<feBlend mode="normal" in="SourceGraphic" in2="BackgroundImageFix" result="shape"/>
<feGaussianBlur stdDeviation="1.5" result="effect1_foregroundBlur_879_3381"/>
</filter>
</defs>
</svg>
