<svg width="69" height="64" viewBox="0 0 69 64" fill="none" xmlns="http://www.w3.org/2000/svg">
<g filter="url(#filter0_ii_879_3339)">
<ellipse cx="31.8524" cy="32" rx="31.8524" ry="32" fill="#FFD45B"/>
</g>
<path d="M19.9062 27C19.9062 27 19.9062 24 22.8924 24C25.8786 24 25.8786 27 25.8786 27" stroke="#353743" stroke-width="2" stroke-linecap="round"/>
<path d="M37.8242 27C37.8242 27 37.8242 24 40.8104 24C43.7965 24 43.7965 27 43.7965 27" stroke="#353743" stroke-width="2" stroke-linecap="round"/>
<g filter="url(#filter1_ii_879_3339)">
<path fill-rule="evenodd" clip-rule="evenodd" d="M55.6037 31.3847C55.2354 31.73 54.9579 32.179 54.8177 32.7046L53.375 38.1138L52.6537 40.8184L50.4896 48.9321C50.0909 50.4271 50.9724 51.9609 52.4604 52.3614L60.5367 54.5355C62.0247 54.9361 63.5515 54.0505 63.9502 52.5556L66.8356 41.7372C67.2343 40.2423 66.3528 38.7085 64.8648 38.308L61.7923 37.4809C61.259 37.3373 60.942 36.7883 61.0844 36.2547L61.548 34.5163C61.9467 33.0214 61.0653 31.4876 59.5772 31.087L58.2312 30.7247C57.2663 30.465 56.2838 30.7468 55.6037 31.3847Z" fill="#FFA827"/>
</g>
<g filter="url(#filter2_f_879_3339)">
<ellipse cx="19.9066" cy="36" rx="4.97693" ry="4" fill="#FF9797" fill-opacity="0.8"/>
</g>
<g filter="url(#filter3_f_879_3339)">
<ellipse cx="42.8011" cy="36" rx="4.97693" ry="4" fill="#FF9797" fill-opacity="0.8"/>
</g>
<path d="M24.8828 36C24.8828 36 24.8828 41 31.8505 41C38.8182 41 38.8182 36 38.8182 36" stroke="#F25858" stroke-width="2" stroke-linecap="round"/>
<defs>
<filter id="filter0_ii_879_3339" x="-4" y="-5" width="75.7031" height="73" filterUnits="userSpaceOnUse" color-interpolation-filters="sRGB">
<feFlood flood-opacity="0" result="BackgroundImageFix"/>
<feBlend mode="normal" in="SourceGraphic" in2="BackgroundImageFix" result="shape"/>
<feColorMatrix in="SourceAlpha" type="matrix" values="0 0 0 0 0 0 0 0 0 0 0 0 0 0 0 0 0 0 127 0" result="hardAlpha"/>
<feMorphology radius="3" operator="dilate" in="SourceAlpha" result="effect1_innerShadow_879_3339"/>
<feOffset dx="9" dy="-5"/>
<feGaussianBlur stdDeviation="5.5"/>
<feComposite in2="hardAlpha" operator="arithmetic" k2="-1" k3="1"/>
<feColorMatrix type="matrix" values="0 0 0 0 1 0 0 0 0 0.707984 0 0 0 0 0.195833 0 0 0 1 0"/>
<feBlend mode="normal" in2="shape" result="effect1_innerShadow_879_3339"/>
<feColorMatrix in="SourceAlpha" type="matrix" values="0 0 0 0 0 0 0 0 0 0 0 0 0 0 0 0 0 0 127 0" result="hardAlpha"/>
<feOffset dx="-4" dy="4"/>
<feGaussianBlur stdDeviation="2"/>
<feComposite in2="hardAlpha" operator="arithmetic" k2="-1" k3="1"/>
<feColorMatrix type="matrix" values="0 0 0 0 1 0 0 0 0 0.89 0 0 0 0 0.45 0 0 0 1 0"/>
<feBlend mode="normal" in2="effect1_innerShadow_879_3339" result="effect2_innerShadow_879_3339"/>
</filter>
<filter id="filter1_ii_879_3339" x="49.3945" y="30.6289" width="20.5352" height="25.002" filterUnits="userSpaceOnUse" color-interpolation-filters="sRGB">
<feFlood flood-opacity="0" result="BackgroundImageFix"/>
<feBlend mode="normal" in="SourceGraphic" in2="BackgroundImageFix" result="shape"/>
<feColorMatrix in="SourceAlpha" type="matrix" values="0 0 0 0 0 0 0 0 0 0 0 0 0 0 0 0 0 0 127 0" result="hardAlpha"/>
<feOffset dx="3"/>
<feGaussianBlur stdDeviation="2.25"/>
<feComposite in2="hardAlpha" operator="arithmetic" k2="-1" k3="1"/>
<feColorMatrix type="matrix" values="0 0 0 0 1 0 0 0 0 0.519352 0 0 0 0 0.00555547 0 0 0 0.9 0"/>
<feBlend mode="normal" in2="shape" result="effect1_innerShadow_879_3339"/>
<feColorMatrix in="SourceAlpha" type="matrix" values="0 0 0 0 0 0 0 0 0 0 0 0 0 0 0 0 0 0 127 0" result="hardAlpha"/>
<feOffset dx="-1" dy="1"/>
<feGaussianBlur stdDeviation="1.5"/>
<feComposite in2="hardAlpha" operator="arithmetic" k2="-1" k3="1"/>
<feColorMatrix type="matrix" values="0 0 0 0 1 0 0 0 0 0.761585 0 0 0 0 0.423611 0 0 0 1 0"/>
<feBlend mode="normal" in2="effect1_innerShadow_879_3339" result="effect2_innerShadow_879_3339"/>
</filter>
<filter id="filter2_f_879_3339" x="6.92969" y="24" width="25.9531" height="24" filterUnits="userSpaceOnUse" color-interpolation-filters="sRGB">
<feFlood flood-opacity="0" result="BackgroundImageFix"/>
<feBlend mode="normal" in="SourceGraphic" in2="BackgroundImageFix" result="shape"/>
<feGaussianBlur stdDeviation="4" result="effect1_foregroundBlur_879_3339"/>
</filter>
<filter id="filter3_f_879_3339" x="29.8242" y="24" width="25.9531" height="24" filterUnits="userSpaceOnUse" color-interpolation-filters="sRGB">
<feFlood flood-opacity="0" result="BackgroundImageFix"/>
<feBlend mode="normal" in="SourceGraphic" in2="BackgroundImageFix" result="shape"/>
<feGaussianBlur stdDeviation="4" result="effect1_foregroundBlur_879_3339"/>
</filter>
</defs>
</svg>
