<svg width="458" height="216" viewBox="0 0 458 216" fill="none" xmlns="http://www.w3.org/2000/svg">
<ellipse opacity="0.8" cx="284" cy="259.511" rx="198" ry="198.55" fill="#D2CEFF"/>
<circle opacity="0.5" cx="86" cy="109" r="18" fill="#BDB6FF"/>
<circle cx="30" cy="195" r="30" fill="#D2CEFF"/>
<circle opacity="0.3" cx="425" cy="70" r="128" fill="#9F94FF"/>
<rect x="172.816" y="67.8594" width="144.666" height="178.126" rx="9.33331" transform="rotate(-15.8022 172.816 67.8594)" fill="#8C80FF"/>
<rect x="192.652" y="86.5039" width="116.666" height="140" rx="9.33331" transform="rotate(-15.8022 192.652 86.5039)" fill="white"/>
<rect x="209.41" y="42.9609" width="60.6665" height="23.3333" rx="4.66665" transform="rotate(-15.8022 209.41 42.9609)" fill="#FFDC42"/>
<path d="M218.211 108.375L294.546 86.7713" stroke="#D2CEFF" stroke-width="9.33331" stroke-linecap="round"/>
<path d="M225.832 135.32L302.167 113.717" stroke="#D2CEFF" stroke-width="9.33331" stroke-linecap="round"/>
<path d="M233.453 162.248L309.788 140.644" stroke="#D2CEFF" stroke-width="9.33331" stroke-linecap="round"/>
<path d="M241.082 189.195L317.417 167.592" stroke="#D2CEFF" stroke-width="9.33331" stroke-linecap="round"/>
<rect width="16.7542" height="62.6012" transform="matrix(0.55165 -0.834988 0.831726 0.553813 337.547 144.857)" fill="#8C80FF"/>
<rect width="22.3389" height="51.7551" rx="7.10999" transform="matrix(0.55165 -0.834988 0.831726 0.553813 358.023 161.861)" fill="#9F94FF"/>
<ellipse cx="50.1719" cy="50.3531" rx="50.1719" ry="50.3531" transform="matrix(0.979963 -0.19918 0.197688 0.980265 258.539 77.4414)" fill="#9F94FF"/>
<ellipse cx="39.0226" cy="39.1635" rx="39.0226" ry="39.1635" transform="matrix(0.979963 -0.19918 0.197688 0.980265 271.68 86.1914)" fill="white"/>
</svg>
