<svg width="216" height="44" viewBox="0 0 216 44" fill="none" xmlns="http://www.w3.org/2000/svg">
<rect width="216" height="44" rx="12" fill="#FEE501"/>
<path d="M48 20.737C48 24.4578 44.4183 27.4741 40 27.4741C35.5817 27.4741 32 24.4578 32 20.737C32 17.0163 35.5817 14 40 14C44.4183 14 48 17.0163 48 20.737Z" fill="#353743"/>
<path d="M36.1706 28.9973C35.6337 29.3289 34.9794 28.7981 35.193 28.2043L36.1185 25.6326C36.251 25.2643 36.6708 25.0889 37.0259 25.2534L38.8768 26.1106C39.3588 26.3339 39.3988 27.0037 38.9469 27.2828L36.1706 28.9973Z" fill="#353743"/>
<path d="M63.0156 16.5742C63.0111 17.9323 62.8516 19.1559 62.5371 20.2451C62.2272 21.3298 61.6621 22.3415 60.8418 23.2803C60.026 24.2191 58.8913 25.0508 57.4375 25.7754L56.6035 24.627C57.6517 24.112 58.5107 23.5446 59.1807 22.9248C59.8506 22.305 60.3701 21.6214 60.7393 20.874L56.8906 21.2363L56.6992 19.9238L61.1973 19.6436C61.3568 19.0602 61.4593 18.4473 61.5049 17.8047H57.3418V16.5742H63.0156ZM64.752 15.3574H66.2695V20.1973H68.1016V21.4414H66.2695V27.6895H64.752V15.3574ZM75.1152 16.5742C75.1107 17.9323 74.9512 19.1559 74.6367 20.2451C74.3268 21.3298 73.7617 22.3415 72.9414 23.2803C72.1257 24.2191 70.9909 25.0508 69.5371 25.7754L68.7031 24.627C69.7513 24.112 70.6104 23.5446 71.2803 22.9248C71.9502 22.305 72.4697 21.6214 72.8389 20.874L68.9902 21.2363L68.7988 19.9238L73.2969 19.6436C73.4564 19.0602 73.5589 18.4473 73.6045 17.8047H69.4414V16.5742H75.1152ZM76.8516 15.3574H78.3691V20.1973H80.2012V21.4414H78.3691V27.6895H76.8516V15.3574ZM86.4082 16.0547C87.2878 16.0547 88.0762 16.1937 88.7734 16.4717C89.4753 16.7497 90.0244 17.1416 90.4209 17.6475C90.8174 18.1533 91.0156 18.7344 91.0156 19.3906C91.0156 19.9967 90.8538 20.5368 90.5303 21.0107C90.2067 21.4847 89.7533 21.8675 89.1699 22.1592C88.5866 22.4463 87.9167 22.6286 87.1602 22.7061V24.9688H92.082V26.2129H80.7891V24.9688H85.6562V22.7061C84.9043 22.6286 84.2389 22.4463 83.6602 22.1592C83.0814 21.8675 82.6302 21.4847 82.3066 21.0107C81.9876 20.5368 81.8281 19.9967 81.8281 19.3906C81.8281 18.7344 82.0241 18.1533 82.416 17.6475C82.8125 17.1416 83.3571 16.7497 84.0498 16.4717C84.7471 16.1937 85.5332 16.0547 86.4082 16.0547ZM83.3184 19.3906C83.3184 19.8281 83.4482 20.2087 83.708 20.5322C83.9678 20.8512 84.3324 21.0973 84.8018 21.2705C85.2712 21.4391 85.8066 21.5234 86.4082 21.5234C87.0189 21.5234 87.5589 21.4391 88.0283 21.2705C88.5023 21.0973 88.8691 20.8512 89.1289 20.5322C89.3932 20.2087 89.5254 19.8281 89.5254 19.3906C89.5254 18.9668 89.3932 18.5954 89.1289 18.2764C88.8646 17.9574 88.4954 17.7135 88.0215 17.5449C87.5521 17.3717 87.0143 17.2852 86.4082 17.2852C85.8066 17.2852 85.2712 17.3717 84.8018 17.5449C84.3369 17.7135 83.9723 17.9574 83.708 18.2764C83.4482 18.5954 83.3184 18.9668 83.3184 19.3906ZM104.182 26.2812H92.8887V25.0234H97.7559V23.0137H94.2285V18.9668H101.338V17.4355H94.2012V16.2051H102.842V20.1699H95.7461V21.7695H103.129V23.0137H99.2598V25.0234H104.182V26.2812ZM117.99 20.0605H119.891V21.3457H117.99V27.7168H116.473V15.3574H117.99V20.0605ZM108.748 16.3691H110.252V19.459H113.164V16.3691H114.682V24.8184H108.748V16.3691ZM113.164 23.5742V20.6484H110.252V23.5742H113.164ZM131.703 26.2812H120.41V25.0234H125.277V23.0137H121.75V18.9668H128.859V17.4355H121.723V16.2051H130.363V20.1699H123.268V21.7695H130.65V23.0137H126.781V25.0234H131.703V26.2812ZM140.508 18.3242C140.503 19.0853 140.629 19.8258 140.884 20.5459C141.139 21.266 141.508 21.9062 141.991 22.4668C142.474 23.0273 143.042 23.4466 143.693 23.7246L142.791 24.9414C142.094 24.6178 141.485 24.1484 140.966 23.5332C140.451 22.9134 140.048 22.1911 139.756 21.3662C139.464 22.2549 139.052 23.0342 138.519 23.7041C137.99 24.374 137.359 24.8822 136.625 25.2285L135.695 23.957C136.365 23.6699 136.946 23.237 137.438 22.6582C137.931 22.0749 138.307 21.4072 138.566 20.6553C138.826 19.9033 138.958 19.1263 138.963 18.3242V16.3555H140.508V18.3242ZM144.582 15.3574H146.113V27.7305H144.582V15.3574ZM152.361 17.5039C152.361 18.0234 152.471 18.5225 152.689 19.001C152.913 19.4795 153.243 19.9079 153.681 20.2861C154.123 20.6644 154.658 20.9583 155.287 21.168L154.521 22.3438C153.842 22.1159 153.257 21.7832 152.765 21.3457C152.277 20.9082 151.894 20.3932 151.616 19.8008C151.338 20.4479 150.942 21.0107 150.427 21.4893C149.916 21.9632 149.308 22.321 148.602 22.5625L147.795 21.3867C148.438 21.1725 148.987 20.8649 149.442 20.4639C149.903 20.0628 150.249 19.6071 150.481 19.0967C150.714 18.5817 150.83 18.0508 150.83 17.5039V17.3535H148.219V16.1367H154.932V17.3535H152.361V17.5039ZM149.449 23.3828H157.68V27.7168H156.162V24.5996H149.449V23.3828ZM156.162 15.3574H157.68V18.4473H159.402V19.7188H157.68V22.8086H156.162V15.3574ZM169.711 20.2793H171.611V21.5371H169.711V27.7168H168.207V15.3574H169.711V20.2793ZM159.963 17.2578H162.889V15.5352H164.406V17.2578H167.25V18.4746H159.963V17.2578ZM160.537 22.1934C160.533 21.6328 160.665 21.1315 160.934 20.6895C161.202 20.2428 161.574 19.8965 162.048 19.6504C162.522 19.4043 163.057 19.2812 163.654 19.2812C164.242 19.2812 164.771 19.4043 165.24 19.6504C165.71 19.8965 166.079 20.2428 166.348 20.6895C166.621 21.1315 166.758 21.6328 166.758 22.1934C166.758 22.7539 166.621 23.2552 166.348 23.6973C166.079 24.1348 165.71 24.4766 165.24 24.7227C164.771 24.9688 164.242 25.0918 163.654 25.0918C163.057 25.0918 162.522 24.9688 162.048 24.7227C161.574 24.4766 161.202 24.1348 160.934 23.6973C160.665 23.2552 160.533 22.7539 160.537 22.1934ZM161.986 22.1934C161.986 22.5215 162.057 22.8109 162.198 23.0615C162.34 23.3076 162.535 23.499 162.786 23.6357C163.041 23.7679 163.331 23.834 163.654 23.834C163.969 23.834 164.251 23.7679 164.502 23.6357C164.753 23.5036 164.949 23.3122 165.09 23.0615C165.231 22.8109 165.304 22.5215 165.309 22.1934C165.304 21.8652 165.229 21.5758 165.083 21.3252C164.942 21.07 164.746 20.874 164.495 20.7373C164.249 20.596 163.969 20.5254 163.654 20.5254C163.331 20.5254 163.041 20.596 162.786 20.7373C162.535 20.874 162.34 21.07 162.198 21.3252C162.057 21.5758 161.986 21.8652 161.986 22.1934ZM182.453 27.7168H180.922V15.3574H182.453V27.7168ZM172.213 24.3125C173.808 23.556 175.004 22.6514 175.802 21.5986C176.604 20.5459 177.076 19.304 177.217 17.873H172.842V16.6699H178.762C178.762 18.6341 178.317 20.3568 177.429 21.8379C176.54 23.319 175.066 24.5495 173.006 25.5293L172.213 24.3125Z" fill="#353743"/>
</svg>
