<svg width="42" height="29" viewBox="0 0 42 29" fill="none" xmlns="http://www.w3.org/2000/svg">
<g id="Group 60146">
<g id="Group 5">
<path id="Subtract" fill-rule="evenodd" clip-rule="evenodd" d="M33.5951 23.0213C33.3895 23.3022 33.1737 23.5752 32.9482 23.8397V23.0213H33.5951ZM33.6586 22.9338H32.9482V21.689C33.0559 21.7364 33.175 21.7627 33.3003 21.7627H34.4162C34.1828 22.1662 33.9298 22.557 33.6586 22.9338ZM32.8607 22.9338V21.6444C32.6003 21.4929 32.4253 21.2107 32.4253 20.8877V19.7528H29.6798V22.9338L32.8607 22.9338ZM33.4884 8.1827C33.3132 8.09275 33.1332 8.01725 32.9482 7.9562V6.67912H33.7211C34.412 7.65451 34.9813 8.72219 35.4068 9.86005H35.3879C35.2528 9.65365 35.1035 9.46009 34.9399 9.27936C34.531 8.8127 34.0472 8.44714 33.4884 8.1827ZM32.8607 7.92851V6.67912L29.6798 6.67912V7.7627H31.7097C32.1122 7.7627 32.4959 7.81797 32.8607 7.92851ZM33.6586 6.59162H32.9482V5.68565C33.197 5.97754 33.434 6.27977 33.6586 6.59162ZM32.8607 6.59162V5.58398C32.1552 4.77207 31.3576 4.04223 30.4843 3.41068H29.6798V6.59162L32.8607 6.59162ZM32.8607 23.9414V23.0213L29.6798 23.0213V26.2022H30.3619C31.2832 25.5509 32.1223 24.7911 32.8607 23.9414ZM30.2367 26.2897H29.6798V26.6552C29.8685 26.5377 30.0542 26.4158 30.2367 26.2897ZM29.5923 26.2022V23.0213H26.4113V26.2022H29.5923ZM26.4113 26.2897H29.5923V26.7093C28.6059 27.3135 27.539 27.799 26.4113 28.146V26.2897ZM26.3238 26.2022V23.0213H23.1429L23.1429 26.2022H26.3238ZM23.1429 26.2897H26.3238V28.1726C25.3073 28.478 24.2422 28.671 23.1429 28.7371V26.2897ZM23.0554 26.2022L23.0554 23.0213H19.8744L19.8744 26.2022H23.0554ZM19.8744 26.2897H23.0554V28.7421C22.8017 28.7558 22.5462 28.7627 22.2891 28.7627C21.4657 28.7627 20.6588 28.6916 19.8744 28.5552V26.2897ZM19.7869 26.2022V23.0213H16.606L16.606 26.2022H19.7869ZM16.606 26.2897H19.7869V28.5397C18.6755 28.3392 17.6096 28.0075 16.606 27.5611V26.2897ZM16.5185 26.2022L16.5185 23.0213L13.3375 23.0213V25.5274C13.6212 25.7636 13.9143 25.9887 14.2163 26.2022L16.5185 26.2022ZM14.3415 26.2897L16.5185 26.2897V27.5219C15.7537 27.1754 15.0255 26.7622 14.3415 26.2897ZM29.5923 22.9338V19.7528L26.4113 19.7528V22.9338H29.5923ZM26.3238 22.9338V19.7528H23.1429V22.9338H26.3238ZM23.0554 22.9338V19.7528H22.653V20.8877C22.653 21.3709 22.2613 21.7627 21.778 21.7627H19.8744V22.9338H23.0554ZM19.7869 22.9338V21.7627H19.6641C19.1809 21.7627 18.7891 21.3709 18.7891 20.8877V19.7528H16.606V22.9338H19.7869ZM16.5185 22.9338V19.7528L13.3375 19.7528L13.3375 22.9338L16.5185 22.9338ZM13.25 22.9338L13.25 19.7528H10.0691V21.5995C10.3279 22.061 10.612 22.5064 10.9197 22.9338H13.25ZM10.9832 23.0213H13.25V25.454C12.4019 24.7362 11.6403 23.9194 10.9832 23.0213ZM32.4253 19.6653H29.6798V16.4844H32.4253V19.6653ZM29.5923 19.6653V16.4844L26.4113 16.4844V19.6653L29.5923 19.6653ZM32.4253 16.3969H29.6798L29.6798 13.216H32.2566C32.2656 13.2411 32.2741 13.2667 32.2822 13.2927C32.3776 13.5571 32.4253 13.8838 32.4253 14.2727V16.3969ZM29.5923 16.3969L29.5923 13.216L26.4113 13.216L26.4113 16.3969L29.5923 16.3969ZM32.2228 13.1285H29.6798V12.1727H30.34C30.6807 12.1727 30.9806 12.2116 31.2395 12.2894C31.5121 12.3516 31.7302 12.4683 31.8937 12.6394C32.0328 12.7737 32.1425 12.9367 32.2228 13.1285ZM29.5923 13.1285V12.1727H26.5987C26.5354 12.1727 26.473 12.1729 26.4113 12.1733V13.1285L29.5923 13.1285ZM29.5923 7.7627V6.67912H26.4113V7.7743C26.534 7.76656 26.6578 7.7627 26.7827 7.7627H29.5923ZM29.5923 6.59162V3.41068L26.4113 3.41068V6.59162H29.5923ZM30.3619 3.32318H29.6798V2.87016C29.9118 3.01466 30.1393 3.16575 30.3619 3.32318ZM29.5923 3.32318V2.81612C28.6059 2.21187 27.539 1.72634 26.4113 1.37942V3.32318L29.5923 3.32318ZM26.3238 19.6653V16.4844H23.1429V19.6653H26.3238ZM23.0554 19.6653V16.4844H22.653V19.6653H23.0554ZM18.7891 19.6653V16.4844H16.606V19.6653H18.7891ZM16.5185 19.6653V16.4844L13.3375 16.4844V19.6653L16.5185 19.6653ZM13.25 19.6653V16.4844H10.0691L10.0691 19.6653H13.25ZM9.98157 19.6653L9.98157 16.4844H8.39388C8.52943 17.5897 8.7938 18.6552 9.17151 19.6653H9.98157ZM9.20456 19.7528H9.98157L9.98157 21.441C9.6868 20.899 9.4268 20.3352 9.20456 19.7528ZM26.3238 16.3969L26.3238 13.216H23.1429V16.3969H26.3238ZM26.3238 13.1285V12.1739C26.0204 12.1767 25.7372 12.184 25.4743 12.196C25.1336 12.2116 24.8065 12.2427 24.493 12.2894C24.1931 12.3205 23.8933 12.3749 23.5935 12.4527C23.4465 12.4908 23.2963 12.5327 23.1429 12.5782V13.1285H26.3238ZM26.3238 7.78048V6.67912L23.1429 6.67912V9.28237C23.3621 8.98962 23.6349 8.73973 23.9615 8.5327C24.3431 8.29936 24.7724 8.1127 25.2494 7.9727C25.5973 7.87344 25.9554 7.80937 26.3238 7.78048ZM26.3238 6.59162V3.41068L23.1429 3.41068V6.59162L26.3238 6.59162ZM26.3238 3.32318V1.35282C25.3073 1.04742 24.2422 0.854428 23.1429 0.788299V3.32318L26.3238 3.32318ZM23.0554 16.3969V13.216H22.653V16.3969H23.0554ZM18.7891 16.3969V13.216H16.606V16.3969H18.7891ZM16.5185 16.3969V13.216H13.3375V16.3969L16.5185 16.3969ZM13.25 16.3969V13.216L10.0691 13.216L10.0691 16.3969H13.25ZM9.98157 16.3969L9.98157 13.216H8.37353C8.31771 13.7239 8.28906 14.2399 8.28906 14.7627C8.28906 15.3155 8.3211 15.8608 8.38343 16.3969H9.98157ZM23.0554 13.1285V12.6045C22.9236 12.6445 22.7895 12.6873 22.653 12.7327V13.1285H23.0554ZM23.0554 9.40614V6.67912L19.8744 6.67912V7.7627H21.6221C22.1621 7.7627 22.5732 8.24708 22.4854 8.77993L22.3075 9.86005H22.6338L22.6994 9.79642L22.6995 9.7964C22.8373 9.66312 22.9719 9.53303 23.0554 9.40614ZM23.0554 6.59162V3.41068L19.8744 3.41068L19.8744 6.59162H23.0554ZM23.0554 3.32318V0.783308C22.8017 0.769625 22.5462 0.762695 22.2891 0.762695C21.4657 0.762695 20.6588 0.833786 19.8744 0.970163V3.32318L23.0554 3.32318ZM19.7869 7.7627V6.67912L16.606 6.67911V9.86005H18.7891V8.6377C18.7891 8.15445 19.1809 7.7627 19.6641 7.7627H19.7869ZM19.7869 6.59162L19.7869 3.41068L16.606 3.41068L16.606 6.5779L16.608 6.59162L19.7869 6.59162ZM19.7869 3.32318V0.985663C18.6755 1.1862 17.6096 1.51794 16.606 1.96426V3.32318L19.7869 3.32318ZM16.606 13.1285H18.7891V9.94755H16.606V13.1285ZM16.5185 13.1285H13.3375V9.94755H14.0375C14.0546 10.0213 14.0704 10.0961 14.0848 10.1719L14.3119 11.3706C14.3389 11.5135 14.4647 11.4989 14.4582 11.3536L14.4036 10.1348C14.4008 10.072 14.399 10.0095 14.3983 9.94755H16.5185V13.1285ZM13.25 13.1285V9.94755L10.0691 9.94755L10.0691 13.1285L13.25 13.1285ZM9.98157 13.1285L9.98157 9.94755H9.13912C8.76887 10.9584 8.51186 12.0238 8.38343 13.1285H9.98157ZM22.2931 9.94755L22.2114 10.4436C22.2493 10.2738 22.3872 10.1084 22.5456 9.94755H22.2931ZM16.5185 9.86005V6.73399L15.847 6.94964C14.9838 7.22689 14.4044 8.40972 14.398 9.86005H16.5185ZM14.0164 9.86005C13.8679 9.26468 13.6307 8.74105 13.3375 8.33162V9.86005H14.0164ZM13.25 9.86005V8.21492C12.8755 7.73816 12.421 7.44131 11.9477 7.40394L11.204 7.34522C11.1154 7.33821 11.091 7.12913 11.1757 7.10192L11.886 6.8738C12.0213 6.83034 12.1496 6.76462 12.2699 6.67911H10.8572C10.5735 7.07966 10.3102 7.49576 10.0691 7.9259V9.86005L13.25 9.86005ZM9.98157 9.86005L9.98157 8.08435C9.67206 8.65354 9.40088 9.2466 9.17151 9.86005H9.98157ZM16.5185 6.47739L16.5185 3.41068H14.0939C13.9487 3.51574 13.8055 3.62352 13.6645 3.73394C13.973 5.23981 14.8421 6.34502 15.7853 6.41949L16.5185 6.47739ZM16.5185 3.32318V2.00354C15.7068 2.37121 14.9365 2.81405 14.2163 3.32318L16.5185 3.32318ZM12.3821 6.59161C12.8021 6.23421 13.1095 5.62315 13.25 4.8782V4.07141C12.3744 4.81241 11.5911 5.65904 10.9197 6.59161H12.3821Z" fill="#6F60FF"/>
<path id="Vector 1" d="M9.00323 14.122L8.74991 11.8549C7.24659 12.7063 5.89311 13.8738 4.81004 14.9685C2.89135 16.9076 0.490826 19.6142 1.78777 22.0142C1.98231 22.3742 2.2794 22.7052 2.71443 22.9778C10.5407 27.8817 31.0027 11.803 39.2384 3.64887C32.4281 8.37456 17.1932 17.9437 10.7353 18.4149C4.27739 18.8861 6.88979 15.7493 9.00323 14.122Z" fill="url(#paint0_linear_3054_2194)"/>
</g>
</g>
<defs>
<linearGradient id="paint0_linear_3054_2194" x1="1.87203" y1="24.4512" x2="25.9537" y2="-3.83379" gradientUnits="userSpaceOnUse">
<stop offset="0.268016" stop-color="#6854FF"/>
<stop offset="0.430403" stop-color="#6854FF" stop-opacity="0.97966"/>
<stop offset="1" stop-color="#6854FF" stop-opacity="0"/>
</linearGradient>
</defs>
</svg>
