<svg width="163" height="24" viewBox="0 0 163 24" fill="none" xmlns="http://www.w3.org/2000/svg">
<path d="M3.49313 23.5H0.149376V6.53125H3.36813V9.3125H3.55563C3.96188 8.36458 4.58688 7.63021 5.43063 7.10938C6.28479 6.57812 7.32646 6.3125 8.55563 6.3125C9.72229 6.3125 10.7379 6.55729 11.6025 7.04688C12.4775 7.53646 13.1494 8.26042 13.6181 9.21875C14.0973 10.1771 14.3369 11.3438 14.3369 12.7188V23.5H11.0244V13.125C11.014 11.8854 10.691 10.9219 10.0556 10.2344C9.43063 9.53646 8.55563 9.1875 7.43063 9.1875C6.65979 9.1875 5.9775 9.35417 5.38375 9.6875C4.79 10.0208 4.32646 10.5104 3.99313 11.1562C3.65979 11.7917 3.49313 12.5521 3.49313 13.4375V23.5ZM26.6719 23.8438C25.026 23.8438 23.5938 23.4844 22.375 22.7656C21.1562 22.0469 20.224 21.0312 19.5781 19.7188C18.9323 18.4062 18.6094 16.875 18.6094 15.125C18.6094 13.3958 18.9323 11.8646 19.5781 10.5312C20.224 9.19792 21.1406 8.16146 22.3281 7.42188C23.5156 6.68229 24.8906 6.3125 26.4531 6.3125C27.8177 6.3125 29.0677 6.60938 30.2031 7.20312C31.3385 7.79688 32.25 8.73438 32.9375 10.0156C33.6354 11.2865 33.9844 12.8958 33.9844 14.8438V16.0312H21.9219C21.9531 17.0938 22.1719 18.0052 22.5781 18.7656C22.9844 19.526 23.5417 20.1042 24.25 20.5C24.9583 20.8958 25.776 21.0938 26.7031 21.0938C27.599 21.0938 28.3594 20.9271 28.9844 20.5938C29.6198 20.25 30.0885 19.8021 30.3906 19.25H33.7656C33.5156 20.1667 33.0677 20.974 32.4219 21.6719C31.776 22.3594 30.9635 22.8958 29.9844 23.2812C29.0052 23.6562 27.901 23.8438 26.6719 23.8438ZM30.7031 13.5312C30.7031 12.6771 30.526 11.9115 30.1719 11.2344C29.8281 10.5469 29.3333 10.0156 28.6875 9.64062C28.0521 9.25521 27.3177 9.0625 26.4844 9.0625C25.6198 9.0625 24.849 9.26562 24.1719 9.67188C23.5052 10.0677 22.9792 10.6094 22.5938 11.2969C22.2083 11.9844 21.9896 12.7292 21.9375 13.5312H30.7031ZM36.8819 6.53125H40.3194L43.6319 18.9688H43.8194L47.1319 6.53125H50.5694L53.8506 18.9062H54.0381L57.3194 6.53125H60.7569L55.7881 23.5H52.3819L48.9444 11.2812H48.6944L45.2881 23.5H41.8506L36.8819 6.53125ZM159.132 11.1562C158.976 10.4583 158.621 9.91667 158.069 9.53125C157.528 9.13542 156.809 8.9375 155.913 8.9375C155.288 8.9375 154.731 9.03646 154.241 9.23438C153.752 9.43229 153.366 9.70312 153.085 10.0469C152.804 10.3906 152.663 10.776 152.663 11.2031C152.663 11.7135 152.871 12.151 153.288 12.5156C153.715 12.8802 154.392 13.1667 155.319 13.375L158.007 14C159.569 14.3542 160.731 14.9115 161.491 15.6719C162.262 16.4219 162.653 17.3958 162.663 18.5938C162.653 19.6146 162.366 20.526 161.804 21.3281C161.252 22.1198 160.455 22.7396 159.413 23.1875C158.371 23.625 157.142 23.8438 155.726 23.8438C153.705 23.8438 152.101 23.4167 150.913 22.5625C149.726 21.6979 149.028 20.4688 148.819 18.875H152.226C152.528 20.3958 153.663 21.1562 155.632 21.1562C156.736 21.1562 157.611 20.9531 158.257 20.5469C158.913 20.1302 159.246 19.5625 159.257 18.8438C159.246 18.2917 159.028 17.8385 158.601 17.4844C158.184 17.1198 157.528 16.8333 156.632 16.625L153.976 16.0625C152.455 15.7292 151.299 15.1667 150.507 14.375C149.715 13.5729 149.319 12.5833 149.319 11.4062C149.319 10.4062 149.59 9.52083 150.132 8.75C150.684 7.97917 151.455 7.38021 152.444 6.95312C153.444 6.52604 154.59 6.3125 155.882 6.3125C157.121 6.3125 158.21 6.51042 159.147 6.90625C160.085 7.30208 160.825 7.86458 161.366 8.59375C161.908 9.32292 162.236 10.1771 162.351 11.1562H159.132Z" fill="#373737"/>
<path d="M67.7294 0.875H76.2294C77.9273 0.875 79.37 1.17708 80.5575 1.78125C81.7554 2.375 82.6565 3.21354 83.2606 4.29688C83.8752 5.38021 84.1877 6.64583 84.1981 8.09375C84.1877 9.63542 83.8335 10.9635 83.1356 12.0781C82.4481 13.1823 81.4429 14 80.12 14.5312L85.0106 23.5H80.4794L76.0419 15.2188H71.7919V23.5H67.7294V0.875ZM75.6044 11.8125C78.5627 11.8229 80.0419 10.5833 80.0419 8.09375C80.0419 6.86458 79.6773 5.92188 78.9481 5.26562C78.219 4.60938 77.1044 4.28125 75.6044 4.28125H71.7919V11.8125H75.6044ZM88.6581 0.875H103.377V4.28125H92.7206V10.4688H102.596V13.875H92.7206V20.0625H103.439V23.5H88.6581V0.875ZM106.774 23.5L114.743 0.875H119.743L127.743 23.5H123.399L121.509 17.9062H112.993L111.118 23.5H106.774ZM120.415 14.625L117.337 5.5H117.149L114.087 14.625H120.415ZM131.391 0.875H135.453V20.0625H145.453V23.5H131.391V0.875Z" fill="#6854FF"/>
</svg>
