<svg width="395" height="58" viewBox="0 0 395 58" fill="none" xmlns="http://www.w3.org/2000/svg">
<rect x="388" y="35" width="6.26523" height="15.3143" transform="rotate(27.2018 388 35)" fill="#FEE501"/>
<rect x="345" y="36.1426" width="6.26523" height="15.3143" transform="rotate(-78.6267 345 36.1426)" fill="#FF4C4C"/>
<rect y="43.7402" width="10.047" height="27.1493" transform="rotate(-60.4458 0 43.7402)" fill="#D2CEFF"/>
<rect x="229.605" y="29.1328" width="6.26523" height="27.1493" transform="rotate(36.2587 229.605 29.1328)" fill="#FF4C4C"/>
<rect x="105.102" y="14" width="6.26523" height="27.1493" transform="rotate(67.6043 105.102 14)" fill="#9F94FF"/>
<rect x="295" y="9.48438" width="6.26523" height="27.1493" transform="rotate(-45.7168 295 9.48438)" fill="#9F94FF"/>
<rect x="144.219" y="38.6465" width="6.26523" height="6.26523" transform="rotate(24.2385 144.219 38.6465)" fill="#8C80FF"/>
<rect x="193" y="15.4922" width="6.26523" height="6.26523" transform="rotate(-13.7686 193 15.4922)" fill="#FEE501"/>
<rect x="261" y="28.4863" width="10.4485" height="10.4485" transform="rotate(-13.7686 261 28.4863)" fill="#BDB6FF"/>
<rect x="147.906" y="5" width="10.4485" height="10.4485" transform="rotate(10.506 147.906 5)" fill="#BDB6FF"/>
<rect x="36.2266" width="13.1544" height="13.1544" transform="rotate(33.3294 36.2266 0)" fill="#FF4C4C"/>
<circle cx="390.655" cy="12.6547" r="3.65472" fill="#6F60FF"/>
<circle cx="250.655" cy="5.65472" r="3.65472" fill="#6F60FF"/>
</svg>
