<svg xmlns="http://www.w3.org/2000/svg" width="37" height="36" viewBox="0 0 37 36" fill="none">
  <path d="M5 26.625C5 27.9179 5.51361 29.1579 6.42785 30.0721C7.34209 30.9864 8.58207 31.5 9.875 31.5H17.2475L17.7815 29.3655C18.0245 28.3935 18.527 27.5055 19.2365 26.7975L28.0895 17.943C28.5976 17.4341 29.211 17.0428 29.8866 16.7966C30.5623 16.5504 31.2837 16.4553 32 16.518V9.375C32 8.08207 31.4864 6.84209 30.5721 5.92785C29.6579 5.01361 28.4179 4.5 27.125 4.5H17V11.625C17 12.2652 16.8739 12.8991 16.6289 13.4906C16.3839 14.082 16.0248 14.6195 15.5721 15.0721C15.1195 15.5248 14.582 15.8839 13.9906 16.1289C13.3991 16.3739 12.7652 16.5 12.125 16.5H5V26.625ZM14.75 5.16L5.66 14.25H12.125C12.8212 14.25 13.4889 13.9734 13.9812 13.4812C14.4734 12.9889 14.75 12.3212 14.75 11.625V5.16ZM29.15 19.005L20.2955 27.858C19.7805 28.3747 19.4146 29.021 19.2365 29.7285L18.5495 32.475C18.4812 32.7483 18.4848 33.0346 18.56 33.306C18.6353 33.5774 18.7796 33.8248 18.9788 34.0239C19.1781 34.223 19.4255 34.3671 19.697 34.4421C19.9685 34.5171 20.2548 34.5205 20.528 34.452L23.273 33.7665C23.9812 33.5882 24.628 33.2218 25.145 32.706L33.998 23.853C34.6161 23.2051 34.9563 22.3411 34.9458 21.4457C34.9353 20.5503 34.5749 19.6945 33.9417 19.0613C33.3085 18.4281 32.4527 18.0677 31.5573 18.0572C30.6619 18.0467 29.7979 18.3869 29.15 19.005Z" fill="#7E82A0"/>
</svg>