<svg width="43" height="37" viewBox="0 0 43 37" fill="none" xmlns="http://www.w3.org/2000/svg">
<path d="M3.73089 15.5948C3.50858 22.3754 1.61791 24.8329 0.305432 26.8575C0.183688 27.0453 0.147585 27.2831 0.208014 27.4986C3.44321 39.0357 23.3159 32.6041 26.6129 26.0884C29.8 19.7899 28.221 6.00735 26.8017 0.664136C26.6955 0.264111 26.3303 0 25.9164 0H2.661C1.9903 0 1.52591 0.684909 1.73576 1.32194C2.68346 4.19889 3.92782 9.58847 3.73089 15.5948Z" fill="#D7D8E2"/>
<path d="M6.81421 31.4481C4.00357 31.7183 1.24599 28.9808 0.1875 27.3817C0.515753 39.5278 22.2272 35.8314 27.6238 34.1506C30.9338 33.1196 32.3814 29.5173 32.783 27.0328C32.8693 26.4987 32.4382 26.043 31.8972 26.043H12.113C11.6641 26.043 11.2812 26.3606 11.1524 26.7906C10.6152 28.5847 9.25462 31.2134 6.81421 31.4481Z" fill="#C4C6D3"/>
<path d="M6.41406 6.63672H24.2623" stroke="#F2F3F6" stroke-width="1.24184" stroke-linecap="round"/>
<path d="M7.24219 11.793H25.0904" stroke="#F2F3F6" stroke-width="1.24184" stroke-linecap="round"/>
<path d="M7.65625 16.9492H25.5045" stroke="#F2F3F6" stroke-width="1.24184" stroke-linecap="round"/>
<path d="M6.41406 22.1055H24.2623" stroke="#F2F3F6" stroke-width="1.24184" stroke-linecap="round"/>
<rect width="3.6153" height="10.6297" transform="matrix(0.769756 -0.63953 0.635782 0.770882 28.2422 23.2715)" fill="#989BB3"/>
<rect width="4.82041" height="11.168" rx="1.53423" transform="matrix(0.769756 -0.63953 0.635782 0.770882 29.5859 25.8457)" fill="#A9ABBF"/>
<circle opacity="0.8" cx="24.2649" cy="14.0481" r="8.78049" fill="white"/>
<path fill-rule="evenodd" clip-rule="evenodd" d="M23.0291 24.8362C28.9824 25.3926 34.2685 21.0007 34.836 15.0268C35.4034 9.05288 31.0373 3.75904 25.0841 3.20268C19.1308 2.64633 13.8447 7.03814 13.2772 13.0121C12.7097 18.986 17.0758 24.2798 23.0291 24.8362ZM23.2622 22.4338C27.8926 22.8665 32.004 19.4507 32.4453 14.8043C32.8867 10.1579 29.4909 6.04045 24.8605 5.60773C20.2302 5.17501 16.1188 8.59086 15.6774 13.2373C15.2361 17.8836 18.6319 22.0011 23.2622 22.4338Z" fill="#A9ABBF"/>
</svg>
